Coordinates
version=1
nRows=26
nColumns=24
inDegrees=yes

Units are S.I. units (second, meters, Newtons, ...)
Angles are in degrees.

endheader
time	pelvis_tilt	pelvis_list	pelvis_rotation	pelvis_tx	pelvis_ty	pelvis_tz	hip_flexion_r	hip_adduction_r	hip_rotation_r	knee_angle_r	ankle_angle_r	subtalar_angle_r	mtp_angle_r	hip_flexion_l	hip_adduction_l	hip_rotation_l	knee_angle_l	ankle_angle_l	subtalar_angle_l	mtp_angle_l	lumbar_extension	lumbar_bending	lumbar_rotation
      0.45400000	     -1.12061694	      4.39378330	      2.95833446	     -0.78567573	      0.98045669	      0.29207583	     28.43183398	     -3.17969494	     -3.44832115	    -13.70448682	      7.68964030	     -4.58892337	      0.43517916	    -14.84598558	      8.41563610	      3.27921760	     -5.52262458	     10.85186946	     -3.33849477	      0.20338127	     -2.05660753	     -2.55341730	     -1.85689418
      0.45816667	     -1.18811847	      4.41785775	      2.98911947	     -0.77959741	      0.97969656	      0.29225954	     28.37256771	     -3.13228370	     -3.50320239	    -13.68615847	      7.55034218	     -4.48585523	      0.67249469	    -14.70082053	      8.39872015	      3.03163369	     -6.40574749	     11.05769194	     -2.89566865	      0.19452420	     -1.92379585	     -2.57576443	     -1.87912950
      0.46233333	     -1.24377014	      4.42759618	      3.03611419	     -0.77346197	      0.97902254	      0.29244004	     28.26929767	     -3.07309067	     -3.54398639	    -13.67673210	      7.32929670	     -4.41869978	      0.87694397	    -14.54670289	      8.35883915	      2.82105702	     -7.33132658	     11.22793217	     -2.46331990	      0.21949183	     -1.77968971	     -2.59579805	     -1.93689207
      0.46650000	     -1.27925059	      4.43071459	      3.05103176	     -0.76731354	      0.97837793	      0.29265920	     28.17086088	     -2.99511618	     -3.55360743	    -13.77917745	      7.11602809	     -4.41453946	      1.16238649	    -14.37483461	      8.31385423	      2.52322813	     -8.32540516	     11.41407804	     -1.98231410	      0.29221904	     -1.67924466	     -2.58268338	     -1.98306567
      0.47066667	     -1.32970407	      4.42212361	      3.08359263	     -0.76111494	      0.97776365	      0.29286651	     28.05894506	     -2.91103076	     -3.54226331	    -13.87998498	      6.80599156	     -4.42469420	      1.41613075	    -14.16803442	      8.25227255	      2.28447020	     -9.35490123	     11.51254296	     -1.56921009	      0.39415083	     -1.53739377	     -2.57710038	     -2.01550283
      0.47483333	     -1.37648211	      4.40647405	      3.09137826	     -0.75491307	      0.97717591	      0.29310660	     27.96754375	     -2.81128003	     -3.50272487	    -14.07687286	      6.47766094	     -4.53434204	      1.75124644	    -13.92156446	      8.18451396	      1.99141033	    -10.46127017	     11.60613696	     -1.13790430	      0.57272547	     -1.42162155	     -2.53901023	     -2.05032226
      0.47900000	     -1.41619235	      4.38318743	      3.11411651	     -0.74867228	      0.97665133	      0.29328764	     27.85464531	     -2.71971706	     -3.49460604	    -14.28612559	      6.00249613	     -4.56166068	      1.87280093	    -13.70144700	      8.12220584	      1.90215478	    -11.53009152	     11.56242282	     -1.01483558	      0.65893668	     -1.30556729	     -2.49362020	     -2.03850553
      0.48316667	     -1.48663429	      4.36343424	      3.13282548	     -0.74242715	      0.97612135	      0.29356156	     27.75684793	     -2.61461130	     -3.38016632	    -14.49657159	      5.61056647	     -4.71835175	      2.10681062	    -13.35484600	      8.03738931	      1.59897972	    -12.76568567	     11.55466577	     -0.53816116	      0.85578112	     -1.12392246	     -2.48405071	     -2.05952003
      0.48733333	     -1.47259137	      4.26635333	      3.12637789	     -0.73610985	      0.97574140	      0.29388475	     27.56437361	     -2.41653107	     -3.26177032	    -14.74046631	      5.16914902	     -5.19776152	      2.83405702	    -13.09203824	      7.86015972	      1.26300967	    -14.00178380	     11.43197848	     -0.06015497	      1.55846726	     -1.05887143	     -2.34291937	     -2.03666774
      0.49150000	     -1.54168005	      4.26094065	      3.09848724	     -0.72986547	      0.97524067	      0.29413512	     27.52995921	     -2.33291817	     -3.17103880	    -15.12045956	      4.63434982	     -5.19389929	      2.94989903	    -12.73864629	      7.82846102	      1.15661627	    -15.23285138	     11.22715096	     -0.05601086	      1.70049469	     -0.90664792	     -2.32051891	     -2.02192441
      0.49566667	     -1.61003319	      4.20305905	      3.08016334	     -0.72363277	      0.97477691	      0.29450025	     27.46712961	     -2.17457439	     -2.97367280	    -15.48041598	      4.26290576	     -5.61283016	      3.29486271	    -12.27500461	      7.69367068	      0.81531106	    -16.66344818	     11.08927127	      0.39042309	      2.18719445	     -0.74140152	     -2.25791476	     -2.01521475
      0.49983333	     -1.65541156	      4.13094776	      3.06491370	     -0.71734655	      0.97441856	      0.29481369	     27.36105869	     -2.01527484	     -2.80895517	    -15.80737771	      3.67015072	     -6.03492168	      6.42753224	    -11.85732069	      7.56387087	      0.65734081	    -18.02218819	     10.60616154	      0.39840764	      7.38342004	     -0.59909210	     -2.16057782	     -1.93230081
      0.50400000	     -1.70217182	      4.06538149	      3.05243768	     -0.71109006	      0.97406740	      0.29512127	     27.29333453	     -1.87913048	     -2.70938055	    -16.22600529	      3.18167279	     -6.15006917	      6.42795406	    -11.37785839	      7.43234289	      0.47125805	    -19.49081662	     10.21457609	      0.59395638	      7.44155250	     -0.46086480	     -2.07703649	     -1.90278854
      0.50816667	     -1.74549049	      3.95970994	      3.01220410	     -0.70487777	      0.97372219	      0.29552207	     27.23677986	     -1.67605841	     -2.51546309	    -16.68500356	      2.77730206	     -6.60585344	      6.43145804	    -10.83567402	      7.24585617	      0.20080716	    -21.06562905	      9.81290426	      0.86808086	      7.62852268	     -0.33280065	     -1.93550111	     -1.84555440
      0.51233333	     -1.81356667	      3.85294577	      2.99645021	     -0.69865897	      0.97340967	      0.29586788	     27.18981349	     -1.49240485	     -2.34892257	    -17.11205437	      2.33684060	     -6.86042838	      6.42831027	    -10.23920583	      7.06442687	      0.03085493	    -22.67229808	      9.23494555	      0.98265865	      7.79148364	     -0.16107854	     -1.80597105	     -1.77315650
      0.51650000	     -1.83581636	      3.70067090	      2.95225702	     -0.69248515	      0.97315067	      0.29631144	     27.11300973	     -1.23541074	     -2.10984299	    -17.59155715	      2.01562252	     -7.48908310	      6.34303057	     -9.63017078	      6.81479578	     -0.22733945	    -24.35781028	      8.58599611	      1.09554988	     11.84047178	     -0.06203023	     -1.61044696	     -1.66111941
      0.52066667	     -1.85899727	      3.54998225	      2.91394599	     -0.68632956	      0.97290843	      0.29674483	     27.05778852	     -0.99911306	     -1.95110070	    -18.11207901	      1.73316622	     -7.81162884	      6.32566694	     -8.97507863	      6.55638294	     -0.48389572	    -26.11172562	      7.89786071	      1.34525941	     11.95921995	      0.04081422	     -1.42934718	     -1.59833654
      0.52483333	     -1.87652645	      3.36667373	      2.85362421	     -0.68020624	      0.97268230	      0.29722454	     26.99203578	     -0.71084024	     -1.72028155	    -18.61976046	      1.46784507	     -8.27448113	      6.26800782	     -8.28024065	      6.26010293	     -0.75407230	    -27.92405919	      7.13843942	      1.49070003	     12.30257643	      0.13456026	     -1.20289314	     -1.50167269
      0.52900000	     -1.89993287	      3.18592570	      2.83143788	     -0.67414291	      0.97245669	      0.29764190	     26.95983042	     -0.45750630	     -1.59256629	    -19.19503436	      1.32046866	     -8.62361773	      6.20528316	     -7.53772949	      5.96132695	     -0.94533474	    -29.79157167	      6.30402694	      1.64663357	     12.64123264	      0.22855591	     -0.98951483	     -1.39459349
      0.53316667	     -1.88808591	      2.95787780	      2.78693213	     -0.66809968	      0.97229517	      0.29812075	     26.87728480	     -0.13702447	     -1.42126430	    -19.74148281	      1.20199671	     -9.03627025	      6.10244433	     -6.78776857	      5.59526377	     -1.18932951	    -31.70914194	      5.39778569	      1.79017754	     13.12895352	      0.27923161	     -0.71534295	     -1.28576531
      0.53733333	     -1.88522082	      2.72599640	      2.72230952	     -0.66208919	      0.97210499	      0.29859416	     26.83153347	      0.18022728	     -1.29893635	    -20.33685679	      1.13685123	     -9.19142787	      6.04323404	     -5.99753204	      5.22712936	     -1.43410379	    -33.65894438	      4.43436607	      1.84223222	     13.38831698	      0.34315343	     -0.42907349	     -1.19100813
      0.54150000	     -1.87634421	      2.46809714	      2.67449941	     -0.65613496	      0.97194913	      0.29907568	     26.76486099	      0.52622689	     -1.16068498	    -20.90941713	      1.16045726	     -9.53290974	      5.95141624	     -5.17531074	      4.81795752	     -1.65005405	    -35.64421352	      3.39809739	      1.92257993	     13.73616912	      0.38800703	     -0.11701465	     -1.07905901
      0.54566667	     -1.81696232	      2.17490216	      2.65086771	     -0.65019632	      0.97191166	      0.29956480	     26.61003469	      0.90778186	     -1.03387944	    -21.42161525	      1.22627884	     -9.98331049	      5.75124665	     -4.38142122	      4.35249516	     -1.83580219	    -37.63582556	      2.24814490	      2.01197105	     14.38991987	      0.37844674	      0.21667367	     -0.94479274
      0.54983333	     -1.77329490	      1.88854990	      2.57331314	     -0.64431751	      0.97178469	      0.30004937	     26.51408559	      1.28096572	     -0.94896361	    -22.00355710	      1.39424216	    -10.01714496	      5.66188208	     -3.54715750	      3.90241670	     -2.06653248	    -39.64882796	      1.13350792	      1.96232967	     14.65769318	      0.37833773	      0.58003178	     -0.85231873
      0.55400000	     -1.72324903	      1.57565889	      2.52625249	     -0.63847677	      0.97172311	      0.30053429	     26.38168315	      1.67986533	     -0.86899427	    -22.53424385	      1.57462194	    -10.27233477	      5.52878216	     -2.69691279	      3.41366214	     -2.23973197	    -41.66092387	     -0.04149201	      1.94377199	     14.97495843	      0.36573077	      0.95342925	     -0.73166927
      0.55816667	     -1.64776894	      1.24189105	      2.47531460	     -0.63267572	      0.97172259	      0.30100686	     26.20148239	      2.09959561	     -0.80587169	    -23.01975769	      1.80493320	    -10.42002189	      5.41022385	     -1.85952847	      2.90056017	     -2.39583568	    -43.65684815	     -1.23323589	      1.86372993	     15.20081986	      0.31738308	      1.34879135	     -0.62562828
